<?xml version="1.0" encoding="utf-8"?>
<!-- Generator: Adobe Illustrator 28.2.0, SVG Export Plug-In . SVG Version: 6.00 Build 0)  -->
<svg version="1.1" id="Layer_1" xmlns="http://www.w3.org/2000/svg" xmlns:xlink="http://www.w3.org/1999/xlink" x="0px" y="0px"
	 viewBox="0 0 155 40" style="enable-background:new 0 0 155 40;" xml:space="preserve">
<style type="text/css">
	.st0{fill:#C518CA;}
	.st1{fill:#0B56A0;}
	.st2{fill:#F57CF8;}
	.st3{fill:#EF28F5;}
	.st4{fill:#DC1515;}
	.st5{fill:#C61ACA;}
</style>
<g>
	<path class="st0" d="M31.1,8.8c0.1,0.1,0.1,0.1,0.2,0.2c1,0.5,1.8,1.2,2.5,2c0.1,0.1,0.1,0.1,0.2,0.1c0,0.2,0.1,0.3,0.2,0.3
		c0,0.1,0.1,0.1,0.1,0.2c0.7,0.9,1.1,1.8,1.5,2.9c0,0.1,0.1,0.2,0.2,0.2c-0.1,0.1-0.1,0.2,0,0.3c0,0.1,0.1,0.3,0.1,0.4
		c0.1,0.7,0.2,1.3,0.2,2c0,0.4-0.1,0.9-0.1,1.3c0,0.1,0,0.2,0,0.2c-0.1,0.1-0.1,0.3-0.1,0.4c0,0.1-0.1,0.3-0.1,0.4
		c-0.2,0.7-0.4,1.3-0.8,1.9c-0.1,0.1-0.1,0.2-0.1,0.3c0,0-0.1,0-0.1,0.1c-0.1,0.1-0.1,0.2-0.2,0.3c-0.1,0.1-0.1,0.2-0.2,0.3
		c-0.3,0.4-0.6,0.8-0.9,1.1c-0.6,0.6-1.2,1.1-1.9,1.5c-0.1,0.1-0.2,0.1-0.3,0.2c-0.1,0-0.2,0.1-0.3,0.1c-0.2,0.1-0.5,0.2-0.7,0.3
		c-0.3,0.2-0.7,0.3-1,0.4c-0.4,0.1-0.8,0.2-1.2,0.3c0,0-0.1,0-0.1,0c-0.1,0-0.2,0-0.3,0c-0.2-0.1-0.4,0-0.5,0c-0.8,0-1.7,0-2.5-0.2
		c-1.6-0.4-3-1.1-4.2-2.2c-0.2-0.1-0.3-0.3-0.4-0.4c-0.1-0.1-0.1-0.2-0.2-0.2c-0.1-0.2-0.2-0.3-0.3-0.4c0-0.1-0.1-0.2-0.2-0.2
		c0,0,0-0.1,0-0.1c-0.2-0.4-0.5-0.7-0.7-1.1c-0.1-0.2-0.2-0.5-0.4-0.7c0-0.1-0.1-0.2-0.1-0.4c-0.5-1.2-0.7-2.4-0.7-3.6
		c0-0.1,0-0.2,0-0.4c0-0.2,0-0.3,0.1-0.5c0-0.1,0-0.2,0-0.2c0-0.1,0-0.2,0.1-0.2c0.1-0.6,0.2-1.1,0.4-1.7c0.2-0.5,0.4-1,0.7-1.5
		c0.1-0.1,0.1-0.2,0.1-0.3c0.1-0.1,0.2-0.2,0.2-0.3c0.4-0.6,0.9-1.2,1.5-1.7c0.1-0.1,0.2-0.2,0.3-0.3c0.1,0,0.2-0.1,0.2-0.2
		c0.1,0,0.2-0.1,0.2-0.1c0.3-0.2,0.7-0.5,1-0.7c0.8-0.5,1.7-0.8,2.7-1c0.1,0,0.2-0.1,0.3-0.1c0.1,0.1,0.3,0,0.4-0.1
		c0.2,0,0.5,0,0.7,0c0.7,0,1.4,0,2,0.1c0.6,0.1,1.2,0.3,1.8,0.5c0.1,0.1,0.3,0.1,0.4,0.1c0.1,0,0.1,0.1,0.2,0.1
		C31,8.8,31.1,8.8,31.1,8.8z M27.2,19.9c0.3,0,0.6,0,0.9,0c0.2,0,0.4,0,0.7,0c0.1,0,0.2,0,0.3,0c0.6-0.2,1-0.8,1-1.3
		c0-0.1,0-0.2,0-0.4c0-0.1,0-0.1,0.1-0.2c0.1,0,0.2-0.1,0.3-0.1c0.9-0.6,0.8-1.9-0.1-2.4c-0.2-0.1-0.4-0.2-0.6-0.2
		c-0.4,0-0.9,0-1.3,0c-0.2,0-0.4,0.2-0.4,0.5c0,0.2,0.2,0.4,0.4,0.4c0.1,0,0.2,0,0.3,0c0.2,0,0.5,0,0.7,0c0.1,0,0.2,0,0.3,0.1
		c0.2,0.1,0.2,0.2,0.3,0.4c0,0.1-0.1,0.3-0.2,0.4c-0.1,0-0.1,0.1-0.2,0.1c-0.4,0-0.8,0-1.2,0c-0.5,0-0.8-0.5-0.9-0.8
		c0-0.2,0-0.4,0-0.6c0-0.1,0-0.2,0.1-0.2c0.1-0.4,0.4-0.6,0.8-0.6c0.3,0,0.5,0,0.8,0c0.2,0,0.4,0,0.7,0c0.2,0,0.3,0.1,0.5,0.1
		c0.2,0.1,0.5,0.3,0.6,0.5c0.1,0.1,0.2,0.2,0.3,0.3c0.1,0.1,0.1,0.1,0.2,0.1c0.2-0.1,0.5-0.2,0.7-0.3c0,0,0.1-0.1,0-0.1
		c-0.1-0.1-0.3-0.3-0.4-0.4c0,0,0-0.1,0-0.2c0,0,0,0,0,0c0-0.1,0.1-0.1,0.1,0c0.1,0,0.1,0.1,0.2,0.1c0.1,0.1,0.3,0.2,0.4,0.3
		c0.1,0.1,0.1,0.1,0.2,0c0.1,0,0.2-0.1,0.3-0.1c0,0,0.1-0.1,0-0.1c0,0-0.1-0.1-0.1-0.1c-0.2-0.2-0.4-0.3-0.6-0.5
		c0,0-0.1-0.1-0.1-0.1c0,0,0-0.1,0-0.1c0,0,0.1-0.1,0.1,0c0,0,0.1,0,0.1,0.1c0.2,0.2,0.5,0.3,0.7,0.5c0.1,0.1,0.2,0.1,0.2,0.2
		c0,0,0.1,0,0.1,0c0.1,0,0.2-0.1,0.3-0.2c0,0,0-0.1,0-0.1c0,0,0-0.1,0-0.1c-0.3-0.3-0.6-0.6-0.9-0.8c-0.1-0.1-0.2-0.1-0.2-0.2
		c0,0,0-0.1,0-0.1c0,0,0,0,0.1,0c0,0,0.1,0,0.1,0c0.4,0.2,0.7,0.5,1.1,0.7c0.4,0.3,0.3,0.3,0.8,0.1c0.1,0,0.1-0.1,0-0.2
		c-0.6-0.6-1.2-1.1-1.9-1.5c-0.2-0.1-0.5-0.3-0.8-0.3C31.6,12,31,12,30.4,12.3c-0.2,0.1-0.3,0.1-0.4,0.2c-0.2,0.1-0.3,0.2-0.5,0.3
		c-0.2,0.1-0.4,0.2-0.5,0.3c-0.2,0.1-0.5,0.3-0.8,0.3c-0.2,0.1-0.4,0-0.6-0.3c0-0.1,0-0.2,0-0.2c0.1-0.1,0.1-0.1,0.2-0.2
		c0.2-0.2,0.2-0.4,0.2-0.6c0-0.7-0.6-1.2-1.3-0.9c-0.6,0.2-0.7,0.8-0.6,1.2c0.1,0.2,0.2,0.4,0.4,0.5c0.1,0.1,0.1,0.2,0.1,0.3
		c-0.1,0.2-0.3,0.3-0.5,0.2c-0.1,0-0.1,0-0.2-0.1c-0.3-0.1-0.5-0.2-0.7-0.4c-0.2-0.1-0.4-0.2-0.6-0.4c-0.3-0.2-0.5-0.3-0.8-0.4
		c-0.5-0.2-1-0.2-1.5-0.1c-0.3,0.1-0.6,0.2-0.9,0.4c-0.6,0.4-1.2,0.8-1.7,1.3c-0.4,0.4-0.3,0.3,0.1,0.5c0,0,0.1,0,0.1,0
		c0,0,0.1,0,0.1,0c0,0,0.1-0.1,0.1-0.1c0.2-0.2,0.5-0.4,0.7-0.5c0.2-0.1,0.4-0.2,0.5-0.3c0,0,0.1,0,0.1,0c0,0,0.1,0,0.1,0
		c0,0,0,0.1,0,0.1c0,0-0.1,0.1-0.1,0.1c-0.3,0.2-0.6,0.5-0.9,0.8c-0.1,0-0.1,0.1-0.1,0.2c0,0,0,0.1,0,0.1c0.1,0.1,0.2,0.1,0.4,0.2
		c0,0,0.1,0,0.1,0c0.1-0.1,0.2-0.1,0.3-0.2c0.2-0.2,0.5-0.4,0.8-0.6c0,0,0.1,0,0.1,0c0,0,0.1,0.1,0,0.2c-0.1,0.1-0.1,0.1-0.2,0.2
		c-0.2,0.2-0.4,0.3-0.5,0.5c-0.1,0.1-0.1,0.1,0.1,0.2c0.1,0,0.2,0.1,0.3,0.1c0.1,0,0.1,0,0.2,0c0.2-0.1,0.4-0.3,0.6-0.4
		c0.1-0.1,0.2-0.1,0.2,0.1c0,0.1,0,0.1,0,0.2c-0.1,0.1-0.3,0.3-0.4,0.4c0,0,0,0.1,0,0.1c0.3,0.1,0.5,0.2,0.8,0.4c0,0,0.1,0,0.1,0
		c0.1-0.1,0.1-0.2,0.2-0.2c0.2-0.3,0.5-0.5,0.9-0.7c0.2-0.1,0.4-0.1,0.6-0.1c0.3,0,0.7,0,1,0c0.1,0,0.1,0,0.2,0
		c0.4,0,0.8,0.3,0.8,0.8c0,0.2,0,0.4,0,0.6c0,0.4-0.4,0.8-0.9,0.8c-0.4,0-0.8,0-1.2,0c-0.3,0-0.6-0.4-0.3-0.7
		c0.1-0.1,0.1-0.2,0.2-0.2c0.1,0,0.2,0,0.3,0c0.3,0,0.5,0,0.8,0c0.1,0,0.2,0,0.3,0c0.1,0,0.1,0,0.2-0.1c0.2-0.1,0.3-0.3,0.2-0.5
		c-0.1-0.2-0.2-0.4-0.4-0.4c0,0-0.1,0-0.1,0c-0.4,0-0.7,0-1.1,0c-0.1,0-0.1,0-0.2,0c-1,0.2-1.4,1.3-0.9,2.1c0.2,0.4,0.6,0.7,1.1,0.7
		c0.1,0,0.3,0,0.4,0c0.4,0,0.9,0,1.3,0c0.1,0,0.2,0,0.3,0c0,0,0.1,0.1,0.1,0.1c0,0.1,0,0.3,0,0.4c0,0.1,0.1,0.1,0.1,0.1
		c0.1,0,0.2,0,0.3,0c0.4,0,0.4,0,0.4-0.4c0,0,0-0.1,0-0.1c0-0.1,0.1-0.1,0.1-0.1c0.3,0,0.6,0,1,0c0.1,0,0.1,0,0.2,0
		c0.2,0.1,0.3,0.2,0.3,0.4c0,0.2-0.1,0.4-0.3,0.4c-0.1,0-0.2,0-0.2,0c-0.4,0-0.8,0-1.3,0c-0.6,0-1.2,0-1.8,0c-0.1,0-0.3,0-0.4,0
		c-0.9,0.2-1.2,1.1-1,1.8c0.2,0.5,0.7,0.9,1.2,0.9c0.2,0,0.5,0,0.7,0c0.1,0,0.3,0,0.4,0c0.1,0,0.1,0.1,0.1,0.1c0,0.1,0,0.3,0,0.4
		c0,0,0.1,0.1,0.1,0.1c0.2,0,0.4,0,0.6,0c0.1,0,0.1-0.1,0.1-0.1c0-0.1,0-0.2,0-0.3c0-0.2,0-0.3,0.3-0.3c0.1,0,0.1,0,0.2,0
		c0.1,0,0.1,0,0.2,0.1c0.2,0.1,0.2,0.2,0.2,0.4c0,0.2-0.1,0.3-0.2,0.4c-0.1,0-0.2,0.1-0.3,0.1c-0.5,0-1.1,0-1.6,0
		c-0.1,0-0.2,0-0.3,0c-0.1,0-0.1,0-0.2,0.1c-0.2,0.1-0.3,0.4-0.2,0.6c0.1,0.1,0.2,0.2,0.4,0.2c0.3,0,0.6,0,1,0c0.4,0,0.8,0,1.1,0
		c0.1,0,0.3,0,0.4-0.1c0.7-0.2,1.2-1,0.9-1.8c-0.2-0.5-0.6-0.8-1.2-0.9c-0.1,0-0.3,0-0.4,0c-0.1,0-0.1,0-0.1-0.1c0-0.1,0-0.3,0-0.4
		c0-0.1-0.1-0.1-0.2-0.2c-0.1,0-0.1,0-0.2,0c-0.6,0-0.5-0.1-0.5,0.5c0,0,0,0.1,0,0.1c0,0,0,0.1-0.1,0.1c0,0,0,0,0,0
		c-0.3,0-0.7,0-1,0c0,0-0.1,0-0.1,0c-0.2,0-0.4-0.3-0.4-0.5c0-0.2,0.2-0.4,0.4-0.4c0.1,0,0.2,0,0.3,0C26.3,19.9,26.7,19.9,27.2,19.9
		z M26.7,24.2c0,0.1,0,0.1,0,0.2c0,0.1,0,0.2,0.1,0.2c0.1,0.1,0.2,0.2,0.3,0.2c0,0,0.1,0,0.1,0c0.2-0.1,0.3-0.2,0.4-0.3
		c0,0,0,0,0-0.1c0-0.1,0-0.1,0-0.2c0-0.5,0-0.5-0.5-0.5c0,0,0,0,0,0C26.7,23.8,26.7,23.8,26.7,24.2z"/>
	<path class="st1" d="M53.9,8.6c0-1.8,0-3.5,0-5.3c0-0.1,0-0.3,0-0.4c0-0.2,0.2-0.5,0.5-0.5c0,0,0.1,0,0.1,0c0.6,0,1.1,0,1.7,0
		c0.3,0,0.6,0.1,0.7,0.4C57,2.9,57.1,3,57.1,3.1c1.5,2.2,3,4.3,4.5,6.5c0.1,0.1,0.1,0.2,0.2,0.3c0,0,0,0,0,0c0,0,0.1,0,0.1,0
		c0-0.1,0-0.3,0-0.4c0-2.1,0-4.1,0-6.2c0-0.2,0-0.3,0-0.5c0.1-0.2,0.2-0.3,0.4-0.4c0,0,0.1,0,0.1,0c0.5,0,1.1,0,1.6,0
		c0.1,0,0.2,0,0.3,0.1c0.1,0.1,0.2,0.2,0.2,0.4c0,0.1,0,0.2,0,0.3c0,3.6,0,7.2,0,10.8c0,0.1,0,0.2,0,0.3c0,0.3-0.2,0.4-0.4,0.5
		c-0.1,0-0.2,0-0.3,0c-0.4,0-0.9,0-1.3,0c-0.1,0-0.2,0-0.3,0c-0.2,0-0.4-0.1-0.5-0.3c-0.1-0.1-0.2-0.2-0.3-0.4
		c-1.2-1.8-2.5-3.7-3.7-5.5c-0.4-0.5-0.7-1.1-1.1-1.6c0,0-0.1-0.1-0.1-0.1c0,0,0,0,0,0c0,0,0,0,0,0.1c0,0.1,0,0.3,0,0.4
		c0,2.2,0,4.4,0,6.5c0,0.1,0,0.3,0,0.4c0,0.2-0.2,0.4-0.4,0.4c-0.1,0-0.1,0-0.2,0c-0.5,0-1,0-1.6,0c-0.1,0-0.1,0-0.2,0
		c-0.2,0-0.3-0.2-0.4-0.4c0-0.1,0-0.3,0-0.4c0-1.1,0-2.2,0-3.3C53.9,10,53.9,9.3,53.9,8.6z"/>
	<path class="st1" d="M79.3,24.5c0,3.5-2.8,6.4-6.4,6.4c-3.4,0-6.4-2.8-6.4-6.4c0-3.6,3-6.4,6.4-6.3C76.5,18.1,79.4,21,79.3,24.5z
		 M73.4,20.8c-1.8,0-3.2,0.7-3.8,2.2c-0.3,0.8-0.4,1.6-0.2,2.5c0.5,1.9,2.4,3.1,4.3,2.6c1-0.3,1.8-0.9,2.3-1.8
		c0.5-1.1,0.6-2.2,0-3.4C75.5,21.5,74.4,20.9,73.4,20.8z"/>
	<path class="st1" d="M64.4,24.5c0,1.8,0,3.6,0,5.4c0,0.1,0,0.3,0,0.4c0,0.2-0.2,0.4-0.4,0.4c-0.1,0-0.1,0-0.2,0c-0.5,0-1,0-1.6,0
		c-0.1,0-0.1,0-0.2,0c-0.2,0-0.4-0.2-0.4-0.4c0-0.1,0-0.1,0-0.2c0-0.2,0-0.5,0-0.7c0-1.1,0-2.2,0-3.4c0-0.1,0-0.2,0-0.3
		c0-0.1,0-0.2-0.2-0.2c-0.1,0-0.2,0-0.3,0c-1.4,0-2.7,0-4.1,0c-0.1,0-0.2,0-0.3,0c-0.1,0-0.1,0.1-0.1,0.1c0,0.1,0,0.3,0,0.4
		c0,1.3,0,2.6,0,3.9c0,0.1,0,0.3,0,0.4c0,0.2-0.2,0.4-0.4,0.4c-0.1,0-0.2,0-0.3,0c-0.5,0-1,0-1.4,0c-0.1,0-0.2,0-0.3,0
		c-0.2,0-0.4-0.2-0.4-0.4c0-0.1,0-0.2,0-0.3c0-3.7,0-7.3,0-11c0-0.1,0-0.2,0-0.3c0-0.2,0.2-0.4,0.4-0.4c0,0,0.1,0,0.1,0
		c0.6,0,1.1,0,1.7,0c0.1,0,0.1,0,0.2,0c0.2,0,0.4,0.2,0.4,0.4c0,0.1,0,0.3,0,0.4c0,1.1,0,2.1,0,3.2c0,0.1,0,0.3,0,0.4
		c0,0.1,0.1,0.1,0.1,0.1c0.1,0,0.3,0,0.4,0c0.9,0,1.8,0,2.8,0c0.5,0,0.9,0,1.4,0c0.1,0,0.1,0,0.2,0c0,0,0.1,0,0.1-0.1
		c0-0.1,0-0.3,0-0.4c0-1.1,0-2.1,0-3.2c0-0.1,0-0.2,0-0.3c0-0.1,0-0.2,0.1-0.3c0.1-0.1,0.2-0.2,0.4-0.2c0.1,0,0.1,0,0.2,0
		c0.5,0,1.1,0,1.6,0c0.1,0,0.1,0,0.2,0c0.2,0,0.4,0.2,0.4,0.4c0,0.1,0,0.3,0,0.4C64.4,20.9,64.4,22.7,64.4,24.5z"/>
	<path class="st1" d="M85.7,30.9c-0.9,0-1.8-0.3-2.8-0.8c-0.6-0.3-1.1-0.7-1.5-1.2c-0.1-0.1-0.3-0.3-0.3-0.5c-0.1-0.1,0-0.2,0-0.4
		c0-0.1,0.1-0.1,0.1-0.2c0.3-0.3,0.7-0.7,1-1c0,0,0.1-0.1,0.1-0.1c0.2-0.1,0.4-0.1,0.6,0c0.1,0.1,0.2,0.2,0.3,0.3
		c0.2,0.2,0.4,0.4,0.6,0.5c0.4,0.3,0.8,0.5,1.2,0.6c0.5,0.1,1,0.1,1.5,0c0.3-0.1,0.6-0.3,0.8-0.5c0.2-0.2,0.3-0.5,0.3-0.7
		c0-0.2-0.1-0.4-0.2-0.5c-0.1-0.1-0.3-0.2-0.4-0.3c-0.2-0.1-0.5-0.2-0.7-0.3c-0.2-0.1-0.4-0.1-0.6-0.2c-0.6-0.2-1.3-0.4-1.8-0.7
		c-0.3-0.2-0.7-0.3-1-0.6c-0.3-0.2-0.5-0.4-0.7-0.7c-0.6-0.7-0.8-1.5-0.7-2.4c0.1-0.9,0.6-1.6,1.3-2.2c0.5-0.4,1-0.6,1.6-0.7
		c0.4-0.1,0.9-0.2,1.3-0.2c0.7,0,1.4,0.1,2.1,0.4c0.7,0.3,1.4,0.8,2,1.3c0.1,0.1,0.2,0.2,0.3,0.3c0.1,0.2,0.1,0.3,0,0.4
		c0,0.1-0.1,0.2-0.2,0.3c-0.3,0.3-0.6,0.6-0.9,0.9c0,0,0,0,0,0c-0.2,0.2-0.4,0.2-0.7,0.1c-0.1-0.1-0.2-0.1-0.3-0.2
		c-0.2-0.1-0.3-0.3-0.5-0.4c-0.2-0.2-0.5-0.3-0.8-0.4c-0.6-0.3-1.2-0.2-1.8-0.1c-0.1,0-0.3,0.1-0.4,0.2c-0.3,0.2-0.4,0.5-0.4,0.8
		c0,0.2,0.1,0.4,0.3,0.5c0.1,0.1,0.2,0.2,0.4,0.2c0.2,0.1,0.5,0.2,0.7,0.3c0.5,0.1,0.9,0.3,1.4,0.4c0.4,0.1,0.8,0.3,1.1,0.4
		c0.4,0.2,0.8,0.4,1.1,0.6c0.3,0.2,0.6,0.5,0.8,0.8c0.3,0.4,0.4,0.8,0.5,1.3c0.1,0.7,0.1,1.3-0.2,1.9c-0.2,0.4-0.4,0.8-0.8,1.1
		c-0.6,0.6-1.2,1-2,1.2C87,30.8,86.4,30.9,85.7,30.9z"/>
	<path class="st1" d="M144.1,30.9c-1,0-2-0.3-2.9-0.8c-0.6-0.3-1.1-0.7-1.5-1.1c-0.1-0.1-0.2-0.3-0.3-0.4c-0.1-0.2-0.1-0.3,0-0.5
		c0-0.1,0.1-0.1,0.2-0.2c0.3-0.3,0.6-0.6,1-0.9c0,0,0.1-0.1,0.1-0.1c0.2-0.1,0.4-0.1,0.6,0c0.1,0.1,0.2,0.2,0.3,0.3
		c0.2,0.2,0.4,0.4,0.6,0.5c0.4,0.3,0.8,0.5,1.3,0.6c0.5,0.1,1,0.1,1.5,0c0.3-0.1,0.5-0.3,0.7-0.5c0.2-0.2,0.3-0.5,0.2-0.7
		c0-0.2-0.1-0.3-0.2-0.5c-0.1-0.2-0.3-0.3-0.5-0.4c-0.2-0.1-0.5-0.2-0.7-0.3c-0.2-0.1-0.4-0.1-0.6-0.2c-0.6-0.2-1.3-0.4-1.8-0.7
		c-0.3-0.2-0.7-0.3-1-0.6c-0.3-0.2-0.6-0.5-0.8-0.7c-0.5-0.7-0.7-1.4-0.6-2.3c0.1-1,0.6-1.8,1.5-2.3c0.5-0.3,1-0.5,1.5-0.7
		c0.4-0.1,0.9-0.2,1.4-0.2c0.8,0,1.5,0.1,2.2,0.4c0.7,0.3,1.3,0.7,1.8,1.2c0.1,0.1,0.1,0.1,0.2,0.2c0.2,0.2,0.2,0.5,0,0.7
		c0,0.1-0.1,0.1-0.1,0.2c-0.3,0.3-0.5,0.5-0.8,0.8c0,0-0.1,0.1-0.1,0.1c-0.2,0.1-0.4,0.2-0.6,0.1c-0.1,0-0.2-0.1-0.2-0.2
		c-0.2-0.1-0.3-0.2-0.5-0.4c-0.3-0.2-0.6-0.4-1-0.6c-0.6-0.2-1.1-0.2-1.7,0c-0.1,0-0.2,0.1-0.3,0.1c-0.4,0.2-0.5,0.7-0.4,1.1
		c0,0.1,0.1,0.2,0.1,0.2c0.1,0.1,0.2,0.2,0.3,0.3c0.2,0.1,0.4,0.2,0.6,0.3c0.3,0.1,0.6,0.2,0.8,0.2c0.6,0.2,1.2,0.4,1.7,0.6
		c0.4,0.2,0.9,0.4,1.2,0.7c0.4,0.3,0.7,0.6,0.9,0.9c0.2,0.3,0.4,0.7,0.4,1c0.2,1.2,0,2.3-0.9,3.2c-0.5,0.5-1.1,0.9-1.8,1.1
		C145.5,30.7,144.8,30.8,144.1,30.9z"/>
	<path class="st1" d="M127,30.7c-0.3,0-0.6,0-0.8,0c-0.3,0-0.5-0.1-0.6-0.4c0-0.1-0.1-0.2-0.1-0.3c-0.2-0.5-0.4-0.9-0.6-1.4
		c0-0.1-0.1-0.1-0.2-0.1c-0.1,0-0.2,0-0.3,0c-1.3,0-2.6,0-3.9,0c-0.1,0-0.2,0-0.3,0c0,0-0.1,0-0.1,0.1c0,0.1-0.1,0.1-0.1,0.2
		c-0.2,0.5-0.4,0.9-0.6,1.4c0,0.1-0.1,0.2-0.1,0.3c-0.1,0.2-0.2,0.3-0.4,0.3c-0.1,0-0.1,0-0.2,0c-0.5,0-1,0-1.6,0
		c-0.1,0-0.1,0-0.2,0c-0.2,0-0.4-0.2-0.4-0.5c0-0.1,0.1-0.2,0.1-0.4c0.3-0.8,0.7-1.7,1-2.5c1.1-2.8,2.2-5.6,3.4-8.3
		c0.1-0.1,0.1-0.3,0.2-0.4c0-0.1,0.1-0.1,0.1-0.2c0.1-0.1,0.2-0.2,0.3-0.2c0.1,0,0.1,0,0.2,0c0.4,0,0.8,0,1.1,0c0.1,0,0.1,0,0.2,0
		c0.2,0,0.3,0.1,0.4,0.3c0.1,0.1,0.1,0.2,0.2,0.3c0.4,1,0.8,2,1.2,3c1.1,2.6,2.1,5.3,3.2,7.9c0,0.1,0.1,0.2,0.1,0.3
		c0,0.1,0,0.1,0,0.2c0,0.2-0.1,0.4-0.3,0.4c-0.1,0-0.2,0-0.3,0C127.5,30.7,127.3,30.7,127,30.7C127,30.7,127,30.7,127,30.7z
		 M122.5,25.9c0.4,0,0.7,0,1.1,0c0.1,0,0.1,0,0.2,0c0,0,0.1-0.1,0.1-0.1c0,0,0-0.1,0-0.1c-0.4-1.1-0.8-2.2-1.2-3.3c0,0,0,0,0-0.1
		c0,0,0,0,0,0c0,0-0.1,0-0.1,0c0,0,0,0.1,0,0.1c-0.4,1.1-0.8,2.1-1.2,3.2c0,0.1,0,0.1,0,0.2c0,0,0,0.1,0,0.1c0.1,0,0.1,0,0.2,0
		C121.7,25.9,122.1,25.9,122.5,25.9z"/>
	<path class="st1" d="M103.3,14.8c-0.2,0-0.5,0-0.7,0c-0.1,0-0.2,0-0.3,0c-0.2,0-0.3-0.1-0.4-0.3c0-0.1-0.1-0.2-0.1-0.3
		c-0.2-0.4-0.4-0.9-0.5-1.3c0-0.1-0.1-0.2-0.1-0.2c0-0.1-0.1-0.1-0.1-0.1c-0.1,0-0.1,0-0.2,0c-1.4,0-2.7,0-4.1,0
		c-0.3,0-0.3,0-0.4,0.3c-0.2,0.4-0.3,0.9-0.5,1.3c0,0.1-0.1,0.2-0.1,0.3c-0.1,0.2-0.2,0.3-0.4,0.3c-0.1,0-0.2,0-0.2,0
		c-0.5,0-1,0-1.6,0c-0.1,0-0.2,0-0.2,0c-0.2,0-0.3-0.2-0.3-0.4c0-0.1,0.1-0.2,0.1-0.3c0.3-0.6,0.5-1.2,0.8-1.9
		c1.2-3.1,2.5-6.1,3.7-9.2c0-0.1,0.1-0.2,0.1-0.3c0.1-0.2,0.3-0.3,0.5-0.3c0.4,0,0.9,0,1.3,0c0.3,0,0.5,0.1,0.6,0.4
		c0,0.1,0.1,0.2,0.1,0.3c1.5,3.6,2.9,7.3,4.4,10.9c0.1,0.1,0.1,0.3,0.1,0.4c0,0.1,0,0.2-0.2,0.3c0,0-0.1,0.1-0.1,0.1
		c-0.1,0-0.2,0-0.3,0C103.8,14.8,103.5,14.8,103.3,14.8z M98.8,10.1c0.4,0,0.8,0,1.1,0c0.1,0,0.1,0,0.2,0c0,0,0,0,0-0.1
		c0-0.1,0-0.1,0-0.2c-0.4-1.1-0.8-2.1-1.2-3.2c0-0.1,0-0.1-0.1-0.2c0,0,0,0,0,0c0,0,0,0,0,0c0,0,0,0,0,0.1c-0.4,1.1-0.8,2.2-1.3,3.3
		c0,0,0,0.1,0,0.1c0,0,0,0.1,0,0.1c0.1,0,0.1,0,0.2,0C98,10.1,98.4,10.1,98.8,10.1z"/>
	<path class="st1" d="M92.5,24.5c0-1.8,0-3.5,0-5.3c0-0.1,0-0.3,0-0.4c0-0.3,0.2-0.5,0.5-0.5c0.1,0,0.2,0,0.3,0c1.5,0,3,0,4.4,0
		c0.2,0,0.5,0,0.7,0c1.4,0.3,2.4,1.1,3,2.4c0.7,1.6,0.3,3.4-0.9,4.5c-0.7,0.7-1.6,1.1-2.6,1.1c-0.7,0-1.4,0-2.1,0
		c-0.1,0-0.3,0-0.4,0c-0.1,0-0.1,0.1-0.1,0.1c0,0.1,0,0.3,0,0.4c0,1,0,2,0,3c0,0.1,0,0.3,0,0.4c0,0.3-0.2,0.5-0.5,0.5
		c0,0-0.1,0-0.1,0c-0.5,0-1.1,0-1.6,0c-0.1,0-0.1,0-0.2,0c-0.2,0-0.4-0.2-0.4-0.4c0-0.1,0-0.3,0-0.4C92.5,28.1,92.5,26.3,92.5,24.5z
		 M95.2,22.4C95.2,22.4,95.2,22.4,95.2,22.4c0,0.4,0,0.8,0,1.3c0,0.1,0,0.1,0,0.2c0,0,0,0.1,0.1,0.1c0.1,0,0.1,0,0.2,0
		c0.6,0,1.1,0,1.7,0c0.1,0,0.2,0,0.3,0c0.6-0.1,1.1-0.4,1.3-1c0.1-0.3,0.1-0.6,0-0.9c-0.1-0.4-0.3-0.8-0.7-1
		c-0.2-0.1-0.5-0.2-0.8-0.2c-0.6,0-1.2,0-1.8,0c0,0-0.1,0-0.1,0c0,0-0.1,0-0.1,0.1c0,0.1,0,0.1,0,0.2C95.2,21.5,95.2,21.9,95.2,22.4
		z"/>
	<path class="st1" d="M73.2,2.4c0.2,0,0.4,0,0.7,0c0.1,0,0.1,0,0.2,0c0.3,0,0.5,0.1,0.6,0.4c0,0.1,0.1,0.2,0.1,0.3
		c0.6,1.5,1.1,3.1,1.7,4.6c0.3,0.9,0.7,1.8,1,2.7c0,0.1,0.1,0.1,0.1,0.2c0,0,0,0,0,0c0,0,0,0,0.1,0C77.8,10,78,9.5,78.2,9
		c0.7-2,1.4-3.9,2.1-5.9c0-0.1,0.1-0.2,0.1-0.4c0.1-0.2,0.3-0.4,0.6-0.4c0.2,0,0.4,0,0.6,0c0.4,0,0.8,0,1.2,0c0.1,0,0.2,0,0.3,0.1
		c0.2,0.1,0.3,0.3,0.2,0.5c0,0.1-0.1,0.3-0.1,0.4c-0.7,1.8-1.4,3.7-2.2,5.5c-0.7,1.8-1.4,3.6-2.1,5.3c0,0.1-0.1,0.2-0.1,0.3
		c-0.1,0.2-0.3,0.4-0.6,0.4c-0.1,0-0.1,0-0.2,0c-0.4,0-0.7,0-1.1,0c-0.4,0-0.7-0.2-0.8-0.5c-0.3-0.7-0.5-1.3-0.8-2
		c-1.2-3-2.3-5.9-3.5-8.9c-0.1-0.1-0.1-0.3-0.2-0.4c-0.1-0.3,0.1-0.5,0.4-0.6c0.1,0,0.2,0,0.3,0C72.7,2.4,72.9,2.4,73.2,2.4z"/>
	<path class="st1" d="M87.7,12c0-0.7,0-1.4,0-2.1c0-0.2,0-0.4-0.1-0.5c-0.4-0.6-0.7-1.2-1.1-1.8c-0.8-1.4-1.6-2.8-2.5-4.2
		C84,3.2,83.9,3.1,83.9,3c-0.1-0.3,0.1-0.5,0.3-0.6c0.1,0,0.1,0,0.2,0c0.6,0,1.2,0,1.8,0c0,0,0.1,0,0.1,0c0.2,0,0.3,0.1,0.4,0.2
		C86.9,2.7,86.9,2.9,87,3c0.6,1.2,1.3,2.5,1.9,3.7C89,6.8,89,6.9,89.1,7c0,0.1,0.1,0.1,0.1,0c0.1-0.1,0.1-0.2,0.2-0.3
		C90,5.5,90.6,4.2,91.3,3c0.1-0.1,0.1-0.2,0.2-0.3c0.1-0.2,0.3-0.3,0.6-0.3c0.3,0,0.5,0,0.8,0c0.4,0,0.7,0,1.1,0c0.1,0,0.2,0,0.3,0
		c0.3,0.1,0.4,0.3,0.3,0.6c0,0.1-0.1,0.2-0.2,0.3c-0.8,1.4-1.6,2.7-2.4,4.1c-0.4,0.7-0.8,1.3-1.2,2c-0.1,0.2-0.1,0.3-0.1,0.5
		c0,1.4,0,2.7,0,4.1c0,0.1,0,0.3,0,0.4c0,0.1,0,0.1,0,0.2c-0.1,0.1-0.2,0.2-0.3,0.3c-0.1,0-0.2,0-0.3,0c-0.5,0-1,0-1.5,0
		c-0.1,0-0.2,0-0.3,0c-0.2,0-0.3-0.2-0.3-0.4c0-0.1,0-0.3,0-0.4C87.7,13.4,87.7,12.7,87.7,12z"/>
	<path class="st1" d="M114.4,25.6c0,1.4,0,2.8,0,4.2c0,0.1,0,0.2,0,0.3c0,0.1,0,0.1,0,0.2c-0.1,0.2-0.2,0.3-0.4,0.4
		c-0.1,0-0.1,0-0.2,0c-0.5,0-1,0-1.5,0c-0.1,0-0.1,0-0.2,0c-0.2,0-0.4-0.2-0.4-0.4c0-0.1,0-0.1,0-0.2c0-0.1,0-0.3,0-0.4
		c0-2.8,0-5.6,0-8.4c0-0.1,0-0.3,0-0.4c0,0,0-0.1-0.1-0.1c-0.1,0-0.2,0-0.2,0c-0.8,0-1.5,0-2.3,0c-0.1,0-0.2,0-0.3,0
		c-0.1,0-0.2,0-0.2-0.1c-0.1-0.1-0.2-0.2-0.3-0.3c0-0.1,0-0.2,0-0.3c0-0.4,0-0.9,0-1.3c0-0.1,0-0.2,0-0.3c0-0.2,0.2-0.3,0.4-0.3
		c0.1,0,0.3,0,0.4,0c2.3,0,4.7,0,7,0c0.4,0,0.8,0,1.1,0c0.1,0,0.2,0,0.3,0c0.2,0,0.4,0.2,0.4,0.4c0,0.1,0,0.1,0,0.2
		c0,0.5,0,0.9,0,1.4c0,0.1,0,0.1,0,0.2c0,0.3-0.2,0.4-0.5,0.5c-0.1,0-0.2,0-0.3,0c-0.7,0-1.5,0-2.2,0c-0.1,0-0.3,0-0.4,0
		c-0.1,0-0.1,0.1-0.1,0.1c0,0.1,0,0.3,0,0.4C114.4,22.8,114.4,24.2,114.4,25.6z"/>
	<path class="st1" d="M129.9,24.5c0-1.8,0-3.6,0-5.4c0-0.1,0-0.3,0-0.4c0-0.2,0.2-0.5,0.5-0.5c0.6,0,1.3,0,1.9,0
		c0.2,0,0.4,0.2,0.4,0.4c0,0.1,0,0.2,0,0.3c0,0.3,0,0.6,0,0.9c0,2.6,0,5.1,0,7.7c0,0.1,0,0.3,0,0.4c0,0.1,0.1,0.1,0.1,0.1
		c0.1,0,0.3,0,0.4,0c1.3,0,2.7,0,4,0c0.1,0,0.2,0,0.3,0c0.1,0,0.1,0,0.2,0c0.2,0.1,0.3,0.2,0.3,0.4c0,0.1,0,0.1,0,0.2
		c0,0.5,0,0.9,0,1.4c0,0.1,0,0.1,0,0.2c0,0.2-0.2,0.4-0.4,0.4c-0.1,0-0.2,0-0.3,0c-0.3,0-0.5,0-0.8,0c-2,0-3.9,0-5.9,0
		c-0.1,0-0.3,0-0.4,0c-0.2,0-0.4-0.2-0.4-0.4c0-0.1,0-0.3,0-0.4C129.9,28.1,129.9,26.3,129.9,24.5z"/>
	<path class="st2" d="M26.4,31.5c0.1,0,0.2,0.1,0.3,0.1c0.6,0.3,1.2,0.8,1.5,1.4c0.3,0.4,0.4,0.8,0.5,1.3c0,0.2,0.1,0.4,0.1,0.7
		c0,0.8-0.3,1.6-0.8,2.3c-0.4,0.6-1,1-1.7,1.2c-0.5,0.2-1,0.3-1.6,0.2c-0.8-0.1-1.6-0.4-2.2-1c-0.6-0.6-1-1.3-1.1-2.1
		c-0.1-0.9,0-1.7,0.5-2.5c0.2-0.4,0.5-0.7,0.9-1c0.1,0,0.1-0.1,0.2-0.1c0.1,0,0.2-0.1,0.2-0.2c0.1,0,0.1,0,0.2,0
		c0.2-0.1,0.4-0.2,0.7-0.2c0.5-0.1,1-0.2,1.5-0.1c0.1,0,0.3,0.1,0.4,0C26.2,31.5,26.3,31.5,26.4,31.5z"/>
	<path class="st1" d="M67.3,8.6c0-1.8,0-3.5,0-5.3c0-0.1,0-0.2,0-0.3c0-0.1,0-0.1,0-0.2c0-0.2,0.2-0.4,0.4-0.4c0.1,0,0.1,0,0.2,0
		c0.5,0,1,0,1.5,0c0.1,0,0.3,0,0.4,0.1c0.1,0.1,0.2,0.2,0.3,0.3c0,0.1,0,0.2,0,0.2c0,0.1,0,0.3,0,0.4c0,3.5,0,7,0,10.5
		c0,0.1,0,0.2,0,0.3c0,0.1,0,0.2,0,0.2c0,0.2-0.2,0.3-0.4,0.4c-0.1,0-0.2,0-0.2,0c-0.5,0-1,0-1.5,0c-0.1,0-0.2,0-0.2,0
		c-0.2,0-0.3-0.1-0.4-0.3c0-0.1,0-0.1,0-0.2c0-0.1,0-0.2,0-0.3C67.3,12.1,67.3,10.4,67.3,8.6z"/>
	<path class="st1" d="M103.6,24.5c0-1.8,0-3.5,0-5.3c0-0.1,0-0.3,0-0.4c0-0.3,0.3-0.5,0.5-0.5c0.1,0,0.2,0,0.3,0c0.4,0,0.8,0,1.3,0
		c0.1,0,0.2,0,0.3,0c0.2,0,0.3,0.1,0.4,0.3c0,0.1,0,0.2,0.1,0.2c0,0.1,0,0.2,0,0.3c0,3.5,0,7.1,0,10.6c0,0.1,0,0.2,0,0.3
		c0,0.1,0,0.2-0.1,0.2c-0.1,0.2-0.2,0.3-0.4,0.3c-0.1,0-0.1,0-0.2,0c-0.5,0-1,0-1.6,0c-0.1,0-0.1,0-0.2,0c-0.2,0-0.4-0.2-0.4-0.4
		c0-0.1,0-0.1,0-0.2c0-0.1,0-0.2,0-0.3C103.6,28,103.6,26.2,103.6,24.5z"/>
	<path class="st0" d="M17.3,7.4c-0.1-0.1-0.2-0.2-0.3-0.2c-0.7-0.5-1.1-1.2-1.2-2.1C15.5,3.6,16.4,2,18,1.4c0.4-0.1,0.8-0.2,1.2-0.2
		c1.4,0.1,2.3,0.8,2.8,2.1c0.5,1.4,0.1,3-1.3,3.9c-0.1,0.1-0.2,0.1-0.3,0.2c0,0,0,0.1-0.1,0.1c-0.1,0-0.2,0-0.3,0.1
		c-0.1,0-0.1,0-0.2,0c-0.2,0.1-0.5,0.1-0.7,0.1c-0.4,0-0.9-0.1-1.3-0.2c-0.1,0-0.2-0.1-0.3-0.1C17.5,7.5,17.4,7.4,17.3,7.4z"/>
	<path class="st0" d="M12.5,26.1c0.1,0.1,0.1,0.2,0.2,0.3c0.7,1.6-0.1,3.5-1.8,4c-1.2,0.4-2.5-0.1-3.2-1.2c-0.9-1.4-0.5-3.5,1.2-4.3
		c0.4-0.2,0.9-0.3,1.4-0.2c0.2,0,0.4,0,0.6,0.1C10.9,25,11,25,11.2,25c0.4,0.2,0.8,0.5,1.1,0.8c0,0,0.1,0,0.1,0
		C12.3,25.9,12.4,26,12.5,26.1C12.5,26.1,12.5,26.1,12.5,26.1z"/>
	<path class="st3" d="M10.8,17.2C10.8,17.2,10.8,17.1,10.8,17.2c0.1-0.2,0.1-0.3,0.1-0.4c0.1-0.6,0.4-1,0.9-1.4
		c0.1-0.1,0.1-0.1,0.2-0.2c0.1,0,0.2-0.1,0.2-0.2c0,0,0.1,0,0.1,0c0.1,0,0.2-0.1,0.3-0.1c0.6-0.2,1.1-0.1,1.6,0.1
		c0.5,0.2,0.8,0.5,1.1,0.9c0.4,0.6,0.6,1.2,0.4,2c0,0.2-0.1,0.4-0.2,0.6c0,0.1,0,0.2,0,0.2c-0.1,0-0.2,0.1-0.2,0.2
		c-0.1,0.1-0.2,0.2-0.3,0.3c-0.5,0.6-1.5,0.9-2.1,0.7c0,0-0.1,0-0.2,0c-0.1,0-0.2,0-0.3-0.1c-0.1-0.1-0.2-0.1-0.4-0.2
		c-0.6-0.3-1-0.8-1.2-1.4c-0.1-0.2-0.1-0.4-0.1-0.6c0-0.1,0-0.1,0-0.2C10.8,17.4,10.8,17.3,10.8,17.2z"/>
	<path class="st3" d="M36.5,28c0.2,0.1,0.3,0,0.5,0c0.5,0,0.9,0.1,1.3,0.4c1.5,1,1.3,3.2-0.2,4c-1.4,0.8-3.1,0-3.5-1.5
		c-0.2-0.7,0-1.4,0.4-2c0.1-0.1,0.1-0.2,0.2-0.3c0.1,0,0.2-0.1,0.2-0.2c0,0,0,0,0-0.1c0,0,0.1,0,0.1,0c0.2-0.2,0.4-0.2,0.7-0.4
		C36.3,28.1,36.4,28.1,36.5,28z"/>
	<path class="st4" d="M105,36.4c0,0.5,0,1,0,1.5c0,0.1,0,0.1,0,0.2c0,0,0,0.1-0.1,0.1c-0.2,0-0.5,0-0.7,0c0,0-0.1,0-0.1-0.1
		c0-0.1,0-0.2,0-0.2c0-0.5,0-0.9,0-1.4c0,0,0-0.1,0-0.1c0,0,0,0,0,0c0,0.1-0.1,0.1-0.1,0.2c-0.2,0.5-0.3,0.9-0.5,1.4
		c0,0.1,0,0.1-0.1,0.2c0,0-0.1,0.1-0.1,0.1c-0.2,0-0.4,0-0.6,0c0,0-0.1,0-0.1-0.1c0-0.1-0.1-0.2-0.1-0.3c-0.1-0.4-0.3-0.8-0.4-1.2
		c0-0.1-0.1-0.1-0.1-0.2c0,0,0,0,0,0c0,0,0,0,0,0c0,0.1,0,0.1,0,0.2c0,0.4,0,0.8,0,1.1c0,0.1,0,0.2,0,0.3c0,0.1-0.1,0.1-0.1,0.1
		c0,0-0.1,0-0.1,0c-0.1,0-0.3,0-0.4,0c-0.2,0-0.2-0.1-0.2-0.2c0-0.3,0-0.5,0-0.8c0-0.7,0-1.5,0-2.2c0-0.2,0-0.3,0.3-0.3
		c0.3,0,0.5,0,0.8,0c0.1,0,0.2,0,0.2,0.2c0.2,0.4,0.3,0.9,0.5,1.3c0.1,0.2,0.1,0.4,0.2,0.5c0,0,0,0,0,0c0,0,0,0,0,0
		c0-0.1,0.1-0.1,0.1-0.2c0.2-0.5,0.3-1,0.5-1.5c0.1-0.4,0.1-0.4,0.5-0.4c0.2,0,0.4,0,0.6,0c0.1,0,0.1,0,0.2,0c0,0,0.1,0.1,0.1,0.1
		c0,0.1,0,0.2,0,0.2C105,35.5,105,36,105,36.4z"/>
	<path class="st3" d="M27.4,4.9c0-0.1,0-0.1,0-0.2c-0.1-0.2-0.2-0.4-0.3-0.6c-0.2-0.6,0-1.4,0.6-1.8c0.3-0.2,0.6-0.4,1-0.4
		c0.4,0,0.7,0.1,1,0.3c0.5,0.3,0.8,0.8,0.8,1.4c0,0.5-0.2,0.9-0.5,1.2C29.9,4.9,29.8,5,29.8,5c0,0,0,0.1,0,0.1
		c-0.1,0-0.2,0.1-0.3,0.1c-0.1,0-0.3,0-0.4,0.1c-0.2,0-0.4,0-0.6,0c-0.2,0-0.4-0.1-0.6-0.2c-0.1,0-0.1-0.1-0.2-0.1
		c0,0-0.1-0.1-0.1-0.1C27.5,4.8,27.4,4.8,27.4,4.9z"/>
	<path class="st3" d="M40.4,15.9c0.1-0.1,0.2-0.2,0.2-0.3c0.2-0.3,0.5-0.5,0.9-0.6c0.3-0.1,0.7-0.1,1,0c0.6,0.2,1,0.6,1.1,1.3
		c0.2,1.1-0.6,1.9-1.4,2.1c-0.9,0.2-2-0.5-2-1.6c0-0.2,0-0.4,0.1-0.6C40.3,16,40.4,16,40.4,15.9z"/>
	<path class="st2" d="M16.5,33.6c0.2,0.2,0.4,0.5,0.4,0.8c0.1,0.5,0,1-0.3,1.5c-0.3,0.3-0.6,0.6-1,0.6c-0.3,0.1-0.6,0-0.8-0.1
		c-0.6-0.2-1-0.7-1.1-1.3c-0.1-0.8,0.3-1.5,0.9-1.8c0.2-0.1,0.5-0.2,0.8-0.2c0.2,0,0.4,0,0.6,0.1c0.1,0,0.2,0.1,0.3,0.1
		c0.1,0,0.1,0,0.2,0C16.4,33.5,16.4,33.5,16.5,33.6z"/>
	<path class="st2" d="M9.6,11.6c0,0-0.1,0-0.1,0c0,0-0.1,0-0.1,0.1c-0.3,0.1-0.5,0.2-0.8,0.2c-0.4,0-0.7-0.2-1-0.4
		C7.2,11.1,7,10.7,7,10.2c0-0.3,0.1-0.6,0.2-0.9c0.3-0.4,0.6-0.7,1.1-0.9c0.3-0.1,0.7-0.1,1,0.1c0.6,0.3,0.9,0.7,1,1.3
		c0,0.2,0,0.4,0,0.5c0,0,0,0.1,0,0.2c-0.1,0.1-0.1,0.2-0.1,0.3c0,0,0,0,0,0c-0.1,0.2-0.2,0.3-0.3,0.5c0,0,0,0.1,0,0.1
		C9.8,11.5,9.7,11.5,9.6,11.6z"/>
	<path class="st4" d="M96.3,36.2C96.3,36.2,96.3,36.2,96.3,36.2c0.2,0.2,0.3,0.3,0.5,0.5c0,0,0.1,0,0.1,0c0.1-0.2,0.2-0.5,0.2-0.8
		c0-0.1,0-0.2,0-0.3c0-0.1,0.1-0.2,0.2-0.2c0.1,0,0.3,0,0.4,0c0.1,0,0.2,0.1,0.2,0.2c0,0.3,0,0.7-0.1,1c-0.1,0.2-0.2,0.3-0.3,0.5
		c0,0.1-0.1,0.2-0.2,0.2c0,0,0,0.1,0,0.1c0.1,0.1,0.2,0.1,0.3,0.1c0.1,0,0.2,0,0.3,0c0,0,0.1,0,0.1,0.1c0,0.2,0,0.4,0,0.5
		c0,0,0,0.1,0,0.1c-0.3,0.1-0.7,0.2-1,0c-0.1-0.1-0.2-0.1-0.3-0.2c0,0-0.1,0-0.2,0c0,0-0.1,0.1-0.1,0.1c-0.4,0.2-0.8,0.3-1.2,0.2
		c-0.2,0-0.4-0.1-0.6-0.2c-0.3-0.2-0.5-0.5-0.5-0.9c0-0.3,0.1-0.6,0.4-0.8c0.1-0.1,0.2-0.1,0.2-0.2c0,0,0-0.1,0-0.1
		c-0.1-0.1-0.1-0.2-0.2-0.2c-0.2-0.3-0.1-0.8,0.3-1c0.1,0,0.2-0.1,0.2-0.1c0.3-0.1,0.7-0.1,1,0c0.1,0,0.1,0.1,0.2,0.1
		c0.4,0.3,0.4,0.8,0.2,1.1C96.5,36,96.4,36.1,96.3,36.2z M95.6,37.5c0.3,0,0.5-0.1,0.7-0.2c0,0,0-0.1,0-0.1
		c-0.2-0.2-0.4-0.4-0.6-0.6c-0.1,0-0.2,0-0.2,0c-0.1,0.1-0.2,0.2-0.3,0.4c0,0.2,0.1,0.4,0.3,0.5C95.4,37.5,95.5,37.5,95.6,37.5z
		 M95.4,35.5c0,0.1,0.1,0.2,0.2,0.3c0,0,0.1,0,0.1,0c0.1,0,0.3-0.2,0.2-0.3c0-0.1,0-0.1-0.1-0.1C95.7,35.2,95.5,35.3,95.4,35.5
		C95.4,35.4,95.4,35.5,95.4,35.5z"/>
	<path class="st4" d="M84.2,36.4c0,0.3,0,0.5-0.1,0.7c-0.2,0.6-0.6,1-1.2,1.1c-0.7,0.2-1.3,0-1.8-0.5c-0.3-0.3-0.4-0.6-0.4-1
		c0-0.4,0-0.7,0.1-1.1c0.3-0.7,0.8-1,1.5-1c0.2,0,0.4,0,0.6,0c0.7,0.2,1.2,0.7,1.2,1.4C84.2,36.2,84.2,36.3,84.2,36.4z M83.2,36.5
		c0-0.3,0-0.5-0.1-0.7c-0.2-0.5-0.9-0.5-1.2-0.1c-0.1,0.1-0.1,0.2-0.2,0.3c-0.1,0.3-0.1,0.6,0,0.9c0,0.2,0.1,0.3,0.3,0.4
		c0.2,0.1,0.4,0.2,0.6,0.1c0.3-0.1,0.4-0.2,0.5-0.5C83.2,36.8,83.2,36.6,83.2,36.5z"/>
	<path class="st4" d="M71.8,36.6c0.3,0.4,0.6,0.8,0.9,1.3c0,0,0.1,0.1,0.1,0.1c0,0,0,0.1-0.1,0.1c0,0-0.1,0-0.1,0
		c-0.2,0-0.4,0-0.6,0c-0.1,0-0.2-0.1-0.3-0.2c-0.1-0.2-0.3-0.5-0.4-0.7c-0.1-0.1-0.1-0.2-0.2-0.3c0-0.1-0.1-0.1-0.2-0.1
		c-0.1,0-0.2,0-0.2,0.1c0,0.2,0,0.4,0,0.5c0,0.2,0,0.3,0,0.5c0,0.1-0.1,0.2-0.2,0.2c-0.1,0-0.3,0-0.4,0c-0.3,0-0.3,0-0.3-0.3
		c0-1,0-1.9,0-2.9c0-0.1,0-0.1,0-0.2c0,0,0-0.1,0.1-0.1c0,0,0.1,0,0.1,0c0.5,0,1,0,1.5,0c0.2,0,0.3,0.1,0.4,0.2
		c0.2,0.1,0.4,0.4,0.4,0.6c0,0.1,0,0.2,0,0.3c0,0.3-0.1,0.5-0.3,0.6C72,36.5,71.9,36.5,71.8,36.6z M70.7,35.7c0,0.2,0,0.2,0,0.3
		c0,0.2,0.1,0.2,0.2,0.2c0.1,0,0.1,0,0.2,0c0.2,0,0.3-0.2,0.3-0.4c0-0.2-0.1-0.3-0.3-0.3c-0.1,0-0.2,0-0.4,0c0,0-0.1,0-0.1,0.1
		C70.7,35.6,70.7,35.6,70.7,35.7z"/>
	<path class="st4" d="M53.9,36.4c0-0.5,0-0.9,0-1.4c0-0.1,0-0.2,0-0.3c0,0,0.1-0.1,0.1-0.1c0.1,0,0.1,0,0.2,0c0.3,0,0.6,0,0.9,0
		c0.2,0,0.4,0,0.5,0.1c0.1,0,0.2,0,0.2,0.1c0.4,0.2,0.6,0.5,0.6,1c0,0.3-0.2,0.5-0.4,0.7c-0.1,0-0.1,0.1-0.2,0.1c0,0,0,0.1,0,0.1
		c0.3,0.4,0.6,0.8,0.8,1.2c0,0,0,0.1,0.1,0.1c0,0,0,0.1-0.1,0.1c0,0-0.1,0-0.1,0c-0.2,0-0.4,0-0.7,0c-0.1,0-0.2,0-0.2-0.1
		c-0.1-0.2-0.2-0.3-0.3-0.5c-0.1-0.1-0.2-0.3-0.3-0.4c0-0.1-0.1-0.1-0.2-0.2c0,0-0.1,0-0.1,0c-0.1,0-0.1,0-0.1,0.1
		c0,0.2,0,0.3,0,0.5c0,0.1,0,0.3,0,0.4c0,0.3,0,0.3-0.3,0.3c-0.2,0-0.3,0-0.5,0c0,0-0.1-0.1-0.1-0.1c0-0.1,0-0.2,0-0.3
		C53.9,37.4,53.9,36.9,53.9,36.4z M54.8,35.8C54.8,35.8,54.8,35.8,54.8,35.8c0,0.1,0,0.2,0,0.3c0,0.1,0,0.1,0.1,0.1
		c0.1,0,0.2,0,0.3,0c0.1,0,0.2-0.1,0.2-0.1c0.1-0.1,0.1-0.2,0.1-0.3c0-0.1-0.1-0.3-0.3-0.3c-0.1,0-0.2,0-0.2,0c-0.1,0-0.2,0-0.2,0.2
		C54.8,35.6,54.8,35.7,54.8,35.8z"/>
	<path class="st4" d="M87.2,36.6c0,0,0,0.1,0.1,0.1c0.3,0.4,0.6,0.9,0.9,1.3c0,0,0,0,0,0c0,0,0,0.1-0.1,0.1c-0.1,0-0.3,0-0.4,0
		c-0.1,0-0.3,0-0.4,0c-0.1,0-0.1,0-0.1-0.1c-0.1-0.2-0.2-0.3-0.3-0.5c-0.1-0.1-0.2-0.3-0.3-0.4c-0.1-0.1-0.1-0.2-0.2-0.2
		c0,0-0.1,0-0.2,0c0,0-0.1,0-0.1,0.1c0,0.2,0,0.4,0,0.6c0,0.2,0,0.3,0,0.5c0,0.1-0.1,0.2-0.2,0.2c-0.2,0-0.4,0-0.6,0
		c-0.1,0-0.1-0.1-0.2-0.2c0-0.1,0-0.2,0-0.3c0-0.9,0-1.8,0-2.7c0-0.1,0-0.2,0-0.3c0,0,0.1-0.1,0.1-0.1c0.1,0,0.1,0,0.2,0
		c0.3,0,0.6,0,0.9,0c0.2,0,0.4,0,0.6,0.1c0.1,0,0.2,0.1,0.3,0.1c0.3,0.2,0.5,0.4,0.5,0.7c0,0.4-0.1,0.7-0.4,0.9
		C87.3,36.5,87.2,36.6,87.2,36.6z M86.1,35.8C86.1,35.8,86.1,35.8,86.1,35.8c0,0.1,0,0.2,0,0.2c0,0.1,0.1,0.1,0.2,0.1
		c0.1,0,0.1,0,0.2,0c0.2,0,0.4-0.2,0.3-0.4c0-0.1-0.1-0.2-0.2-0.3c0,0-0.1,0-0.1,0C86.1,35.4,86.1,35.4,86.1,35.8
		C86.1,35.7,86.1,35.8,86.1,35.8z"/>
	<path class="st4" d="M109.2,35.8c0,0.3,0,0.6,0,0.9c0,0.2,0,0.4-0.1,0.5c-0.1,0.5-0.5,0.8-1,0.9c-0.3,0.1-0.7,0.1-1,0
		c-0.3-0.1-0.6-0.3-0.7-0.6c-0.1-0.2-0.1-0.5-0.2-0.7c0-0.3,0-0.5,0-0.8c0-0.3,0-0.6,0-1c0-0.1,0-0.2,0-0.3c0-0.1,0.1-0.1,0.1-0.1
		c0.2,0,0.4,0,0.7,0c0.1,0,0.1,0.1,0.1,0.1c0,0.1,0,0.2,0,0.3c0,0.5,0,0.9,0,1.4c0,0.1,0,0.2,0,0.3c0,0.4,0.3,0.6,0.7,0.5
		c0.2,0,0.3-0.1,0.3-0.3c0-0.1,0.1-0.2,0.1-0.2c0-0.1,0-0.2,0-0.3c0-0.5,0-1,0-1.5c0-0.1,0-0.2,0-0.3c0-0.1,0.1-0.1,0.1-0.1
		c0,0,0,0,0,0c0.2,0,0.4,0,0.5,0c0.1,0,0.2,0.1,0.2,0.2C109.2,35.2,109.2,35.5,109.2,35.8C109.2,35.8,109.2,35.8,109.2,35.8z"/>
	<path class="st4" d="M137.4,38.2c-0.5,0-0.4,0-0.6-0.4c-0.1-0.3-0.1-0.3-0.4-0.3c-0.2,0-0.4,0-0.6,0c-0.1,0-0.2,0.1-0.2,0.1
		c-0.1,0.2-0.1,0.3-0.2,0.5c0,0.1-0.1,0.1-0.2,0.1c-0.2,0-0.4,0-0.6,0c0,0-0.1,0-0.1,0c0,0,0,0,0-0.1c0-0.1,0-0.1,0-0.2
		c0.4-1,0.7-2,1.1-3c0-0.1,0-0.1,0.1-0.2c0,0,0.1-0.1,0.1-0.1c0,0,0,0,0,0c0.3,0,0.5,0,0.8,0c0.1,0,0.1,0,0.1,0.1
		c0,0.1,0,0.1,0.1,0.2c0.4,1,0.7,2,1.1,3c0,0.1,0,0.1,0,0.2c0,0,0,0.1-0.1,0.1c-0.1,0-0.1,0-0.2,0C137.5,38.2,137.4,38.2,137.4,38.2
		z M136.1,35.8c0,0-0.1,0.1-0.1,0.1c-0.1,0.2-0.1,0.4-0.2,0.7c0,0.1,0,0.1,0.1,0.1c0.1,0,0.2,0,0.4,0c0.1,0,0.1-0.1,0.1-0.1
		C136.3,36.3,136.3,36,136.1,35.8z"/>
	<path class="st4" d="M74.9,34.7c0.1,0,0.2,0,0.3,0c0.2,0,0.2,0.1,0.3,0.2c0,0,0,0.1,0,0.1c0.3,1,0.7,1.9,1,2.9
		c0.1,0.3,0,0.3-0.2,0.3c-0.1,0-0.3,0-0.4,0c-0.3,0-0.3,0-0.4-0.3c0-0.1-0.1-0.2-0.1-0.3c0-0.1-0.1-0.1-0.2-0.1c-0.3,0-0.5,0-0.8,0
		c-0.1,0-0.2,0.1-0.2,0.1c-0.1,0.2-0.1,0.3-0.2,0.5c0,0.1-0.1,0.1-0.2,0.1c-0.2,0-0.5,0-0.7,0c-0.1,0-0.1-0.1-0.1-0.2
		c0.1-0.2,0.1-0.4,0.2-0.6c0.3-0.8,0.6-1.7,0.9-2.5c0-0.1,0-0.1,0.1-0.2c0-0.1,0.1-0.1,0.1-0.1C74.7,34.7,74.8,34.7,74.9,34.7
		C74.9,34.7,74.9,34.7,74.9,34.7z M74.9,36.7C74.9,36.7,74.9,36.7,74.9,36.7c0.1,0,0.1,0,0.2,0c0.1,0,0.1-0.1,0.1-0.1
		c-0.1-0.3-0.1-0.5-0.2-0.7c0,0,0,0,0,0c0,0,0,0,0,0c-0.1,0.2-0.2,0.5-0.2,0.7c0,0,0,0.1,0.1,0.1C74.7,36.7,74.8,36.7,74.9,36.7z"/>
	<path class="st4" d="M57.6,36.4c0-0.4,0-0.9,0-1.3c0-0.1,0-0.2,0-0.3c0,0,0.1-0.1,0.1-0.1c0.1,0,0.1,0,0.2,0c0.2,0,0.4,0,0.6,0
		c0.3,0,0.5,0,0.8,0c0.1,0,0.1,0,0.2,0c0.1,0,0.1,0.1,0.1,0.1c0,0.2,0,0.3,0,0.5c0,0.1-0.1,0.1-0.1,0.1c-0.1,0-0.2,0-0.3,0
		c-0.2,0-0.3,0-0.5,0c-0.3,0-0.3,0-0.3,0.3c0,0.1,0,0.1,0,0.2c0,0,0,0,0.1,0.1c0,0,0.1,0,0.1,0c0.2,0,0.4,0,0.6,0c0.1,0,0.1,0,0.2,0
		c0,0,0.1,0,0.1,0.1c0,0.2,0,0.4,0,0.5c0,0.1-0.1,0.1-0.1,0.1c-0.2,0-0.4,0-0.5,0c-0.1,0-0.2,0-0.3,0c0,0-0.1,0-0.1,0.1
		c0,0.1,0,0.3,0,0.4c0,0,0.1,0.1,0.1,0.1c0.2,0,0.3,0,0.5,0c0.2,0,0.4,0,0.5,0c0.1,0,0.1,0.1,0.1,0.1c0,0.2,0,0.3,0,0.5
		c0,0.1-0.1,0.1-0.1,0.1c-0.1,0-0.1,0-0.2,0c-0.5,0-1,0-1.5,0c-0.1,0-0.1,0-0.2,0c0,0-0.1,0-0.1-0.1c0-0.1,0-0.2,0-0.3
		C57.6,37.3,57.6,36.9,57.6,36.4z"/>
	<path class="st4" d="M122.3,36.4c0-0.5,0-0.9,0-1.4c0-0.1,0-0.2,0-0.3c0,0,0.1-0.1,0.1-0.1c0.1,0,0.1,0,0.2,0c0.3,0,0.6,0,1,0
		c0.2,0,0.3,0,0.5,0.1c0.6,0.1,0.8,0.5,0.9,0.9c0.1,0.7-0.3,1.2-0.9,1.4c-0.2,0.1-0.4,0.1-0.6,0.1c-0.1,0-0.1,0.1-0.1,0.1
		c0,0.2,0,0.4,0,0.6c0,0.1,0,0.2,0,0.3c0,0,0,0.1-0.1,0.1c0,0,0,0,0,0c-0.2,0-0.4,0-0.7,0c0,0-0.1-0.1-0.1-0.1c0-0.1,0-0.2,0-0.2
		C122.3,37.4,122.3,36.9,122.3,36.4z M123.2,35.9C123.2,35.9,123.2,35.9,123.2,35.9c0,0.1,0,0.2,0,0.4c0,0,0,0,0.1,0.1
		c0.1,0,0.2,0,0.2,0c0.3,0,0.4-0.2,0.4-0.5c0-0.2-0.1-0.4-0.3-0.4c0,0-0.1,0-0.1,0c-0.3,0-0.3,0-0.3,0.3
		C123.2,35.7,123.2,35.8,123.2,35.9z"/>
	<path class="st4" d="M125.8,36.4c0-0.5,0-1,0-1.5c0-0.1,0-0.1,0-0.2c0,0,0.1-0.1,0.1-0.1c0.1,0,0.1,0,0.2,0c0.5,0,1,0,1.5,0
		c0.1,0,0.1,0,0.2,0c0,0,0.1,0.1,0.1,0.1c0,0.1,0,0.2,0,0.3c0,0.3,0,0.4-0.4,0.4c-0.2,0-0.4,0-0.7,0c-0.1,0-0.1,0.1-0.1,0.1
		c0,0.1,0,0.2,0,0.3c0,0.1,0.1,0.1,0.1,0.1c0.2,0,0.4,0,0.7,0c0.1,0,0.1,0,0.2,0c0,0,0.1,0.1,0.1,0.1c0,0.1,0,0.1,0,0.2
		c0,0.1,0,0.2,0,0.3c0,0.2-0.1,0.2-0.2,0.2c-0.3,0-0.5,0-0.8,0c-0.1,0-0.1,0.1-0.1,0.1c0,0.1,0,0.2,0,0.3c0,0.1,0.1,0.1,0.1,0.1
		c0.2,0,0.3,0,0.5,0c0.2,0,0.3,0,0.5,0c0.1,0,0.2,0.1,0.2,0.2c0,0.2,0,0.3,0,0.5c0,0.1-0.1,0.1-0.1,0.1c-0.1,0-0.1,0-0.2,0
		c-0.5,0-1,0-1.5,0c-0.1,0-0.1,0-0.2,0c0,0-0.1-0.1-0.1-0.1c0-0.1,0-0.2,0-0.3C125.8,37.4,125.8,36.9,125.8,36.4z"/>
	<path class="st4" d="M61.6,38.2c-0.3,0-0.6,0-0.9-0.1c-0.1,0-0.1-0.1-0.1-0.2c0-0.2,0-0.4,0-0.5c0,0,0-0.1,0-0.1
		c0,0,0.1-0.1,0.1-0.1c0.1,0,0.2,0.1,0.3,0.1c0.3,0.1,0.5,0.2,0.8,0.1c0.1,0,0.1,0,0.2-0.1c0.1-0.1,0.1-0.2,0-0.3
		C62,37,61.9,37,61.8,36.9c-0.1-0.1-0.3-0.1-0.4-0.2c-0.2-0.1-0.3-0.1-0.4-0.3c-0.3-0.2-0.5-0.7-0.3-1.2c0.1-0.2,0.2-0.3,0.3-0.4
		c0.2-0.1,0.4-0.2,0.6-0.2c0.4,0,0.8-0.1,1.2,0.1c0,0,0.1,0,0.1,0c0,0,0.1,0.1,0.1,0.1c0,0.2,0,0.4,0,0.6c0,0-0.1,0.1-0.1,0.1
		c-0.1,0-0.2-0.1-0.2-0.1c-0.2-0.1-0.5-0.1-0.7-0.1c-0.1,0-0.2,0-0.2,0.1c-0.1,0-0.1,0.2,0,0.2c0,0,0.1,0.1,0.1,0.1
		c0.1,0.1,0.2,0.1,0.4,0.2c0.1,0.1,0.2,0.1,0.3,0.2c0.1,0.1,0.2,0.1,0.3,0.2c0.5,0.4,0.4,1.4-0.2,1.7c-0.2,0.1-0.4,0.1-0.6,0.1
		C61.8,38.2,61.7,38.2,61.6,38.2z"/>
	<path class="st4" d="M119.8,38.2c-0.3,0-0.6,0-0.9-0.1c-0.1,0-0.1-0.1-0.1-0.2c0-0.2,0-0.4,0-0.6c0-0.1,0.1-0.1,0.2-0.1
		c0.1,0,0.1,0.1,0.2,0.1c0.3,0.1,0.6,0.2,0.9,0.1c0,0,0.1,0,0.1,0c0.2-0.1,0.2-0.3,0-0.4c-0.1-0.1-0.2-0.1-0.3-0.2
		c-0.1-0.1-0.3-0.1-0.4-0.2c-0.2-0.1-0.3-0.2-0.4-0.3c-0.4-0.4-0.4-1.1,0.2-1.5c0.2-0.1,0.4-0.2,0.6-0.2c0.4,0,0.8,0,1.1,0.1
		c0.1,0,0.2,0.1,0.2,0.2c0,0.2,0,0.3,0,0.5c0,0.2-0.1,0.2-0.2,0.2c-0.1,0-0.2-0.1-0.2-0.1c-0.2-0.1-0.4-0.1-0.7,0
		c-0.1,0-0.1,0-0.1,0.1c-0.1,0.1-0.1,0.2,0,0.3c0,0,0.1,0.1,0.2,0.1c0.1,0.1,0.2,0.1,0.3,0.2c0.1,0.1,0.3,0.1,0.4,0.2
		c0.1,0.1,0.2,0.2,0.3,0.3c0.1,0.2,0.2,0.3,0.2,0.5c0,0.1,0,0.2,0,0.3c0,0.3-0.2,0.5-0.4,0.7c-0.2,0.1-0.4,0.2-0.7,0.2
		C120.1,38.2,119.9,38.2,119.8,38.2z"/>
	<path class="st4" d="M64.1,36.4c0-0.5,0-0.9,0-1.4c0-0.1,0-0.2,0-0.2c0,0,0-0.1,0.1-0.1c0.1,0,0.1,0,0.2,0c0.3,0,0.7,0,1,0
		c0.2,0,0.3,0,0.5,0.1c0.4,0.1,0.7,0.3,0.8,0.8c0.1,0.6-0.1,1.3-0.9,1.5c-0.2,0.1-0.4,0.1-0.6,0.1c-0.1,0-0.1,0.1-0.1,0.1
		c0,0.2,0,0.4,0,0.6c0,0.1,0,0.2,0,0.2c0,0-0.1,0.1-0.1,0.1c-0.2,0-0.4,0-0.7,0c-0.1,0-0.1-0.1-0.1-0.1c0-0.1,0-0.2,0-0.3
		C64.1,37.3,64.1,36.9,64.1,36.4z M65,35.8C65,35.8,65,35.8,65,35.8c0,0.1,0,0.2,0,0.3c0,0.1,0,0.1,0.1,0.1c0.1,0,0.2,0,0.2,0
		c0.2,0,0.3-0.2,0.4-0.4c0-0.1,0-0.1,0-0.2c0-0.1-0.1-0.2-0.3-0.3c-0.1,0-0.3-0.1-0.4,0c0,0,0,0-0.1,0.1C65,35.6,65,35.7,65,35.8z"
		/>
	<path class="st4" d="M130.7,34.6c0.1,0,0.3,0,0.4,0c0.5,0.1,0.5,0,0.5,0.5c0,0.1,0,0.2,0,0.3c0,0.1-0.1,0.1-0.2,0.1
		c-0.1,0-0.1,0-0.2-0.1c-0.3-0.1-0.5-0.1-0.8-0.1c-0.3,0.1-0.6,0.3-0.7,0.6c-0.1,0.2-0.1,0.5,0,0.7c0.1,0.3,0.4,0.6,0.7,0.6
		c0.3,0,0.5,0,0.7-0.1c0.1,0,0.2-0.1,0.2-0.1c0,0,0.1,0,0.1,0.1c0,0,0,0.1,0,0.1c0,0.1,0,0.2,0,0.3c0,0.4,0,0.4-0.4,0.5
		c-0.4,0.1-0.9,0.1-1.3,0c-0.5-0.1-0.8-0.4-0.9-0.9c-0.2-0.5-0.2-1.1,0-1.6c0.3-0.7,0.8-1,1.5-1.1C130.6,34.6,130.7,34.6,130.7,34.6
		C130.7,34.6,130.7,34.6,130.7,34.6z"/>
	<path class="st4" d="M147.5,34.7c0.5,0,0.4-0.1,0.6,0.4c0.1,0.2,0.2,0.5,0.3,0.7c0,0,0,0.1,0.1,0.1c0,0,0.1-0.1,0.1-0.1
		c0.1-0.3,0.3-0.6,0.4-1c0-0.1,0.1-0.2,0.2-0.2c0.2,0,0.4,0,0.6,0c0,0,0.1,0,0.1,0c0,0,0,0,0,0.1c0,0.1,0,0.1-0.1,0.2
		c-0.3,0.5-0.5,1.1-0.8,1.6c-0.1,0.2-0.2,0.4-0.2,0.6c0,0.2,0,0.4,0,0.6c0,0.1,0,0.1,0,0.2c0,0.1-0.1,0.1-0.1,0.1
		c-0.1,0-0.3,0-0.4,0c-0.3,0-0.4,0-0.4-0.4c0-0.2,0-0.4,0-0.6c0-0.2,0-0.4-0.1-0.6c-0.3-0.5-0.5-1-0.7-1.5c-0.1-0.1-0.1-0.2-0.2-0.3
		c0-0.1,0-0.2,0.1-0.2C147.3,34.7,147.4,34.7,147.5,34.7z"/>
	<path class="st4" d="M89.1,34.7c0.5,0,0.4,0,0.6,0.4c0.1,0.3,0.2,0.5,0.3,0.8c0,0,0,0,0,0c0,0,0,0,0.1,0c0-0.1,0.1-0.2,0.1-0.2
		c0.1-0.2,0.2-0.5,0.3-0.7c0-0.1,0-0.1,0.1-0.1c0,0,0.1-0.1,0.1-0.1c0.2,0,0.5,0,0.7,0c0,0,0.1,0,0.1,0c0,0,0,0,0,0.1
		c0,0.1,0,0.2-0.1,0.2c-0.3,0.6-0.6,1.1-0.9,1.7c-0.1,0.1-0.1,0.3-0.1,0.4c0,0.3,0,0.5,0,0.8c0,0.1,0,0.1,0,0.2c0,0,0,0.1-0.1,0.1
		c-0.2,0-0.5,0-0.7,0c0,0-0.1-0.1-0.1-0.1c0-0.2,0-0.4,0-0.6c0-0.2,0-0.4,0-0.5c0-0.2-0.1-0.3-0.2-0.5c-0.2-0.5-0.5-1-0.7-1.4
		c0-0.1-0.1-0.2-0.1-0.2c0,0,0-0.1,0.1-0.1c0,0,0.1,0,0.1,0C88.9,34.7,89,34.7,89.1,34.7z"/>
	<path class="st4" d="M114,36.8c0-0.4,0-0.7,0-1.1c0,0,0-0.1,0-0.1c0,0-0.1-0.1-0.1-0.1c-0.2,0-0.3,0-0.5,0c-0.1,0-0.1,0-0.2,0
		c0,0-0.1-0.1-0.1-0.1c0,0,0-0.1,0-0.1c0-0.6-0.1-0.6,0.6-0.6c0.6,0,1.3,0,1.9,0c0.1,0,0.2,0,0.3,0c0.1,0,0.1,0.1,0.1,0.1
		c0,0.2,0,0.3,0,0.5c0,0.1-0.1,0.2-0.2,0.2c-0.1,0-0.3,0-0.4,0c-0.1,0-0.2,0-0.2,0c0,0-0.1,0-0.1,0.1c0,0.1,0,0.3,0,0.4
		c0,0.6,0,1.2,0,1.8c0,0.1,0,0.2,0,0.3c0,0.1-0.1,0.1-0.1,0.1c0,0,0,0,0,0c-0.2,0-0.4,0-0.6,0c-0.1,0-0.2-0.1-0.2-0.2
		c0-0.1,0-0.3,0-0.4C114,37.3,114,37.1,114,36.8C114,36.8,114,36.8,114,36.8z"/>
	<path class="st4" d="M78.6,34.7c0.3,0,0.7,0,1,0c0.1,0,0.1,0,0.2,0c0.1,0,0.2,0.1,0.2,0.2c0,0.1,0,0.3,0,0.4c0,0.1-0.1,0.2-0.2,0.2
		c-0.1,0-0.3,0-0.4,0c-0.1,0-0.1,0-0.2,0c-0.1,0-0.1,0.1-0.1,0.1c0,0.1,0,0.2,0,0.3c0,0.6,0,1.2,0,1.8c0,0.1,0,0.2,0,0.3
		c0,0.3,0,0.3-0.3,0.3c-0.7,0-0.6,0.1-0.6-0.6c0-0.6,0-1.2,0-1.8c0-0.1,0-0.1,0-0.2c0-0.1-0.1-0.1-0.1-0.1c-0.1,0-0.2,0-0.3,0
		c-0.1,0-0.2,0-0.3,0c-0.1,0-0.2-0.1-0.2-0.2c0-0.1,0-0.3,0-0.4c0-0.1,0.1-0.2,0.2-0.2c0.1,0,0.2,0,0.3,0
		C77.9,34.7,78.3,34.7,78.6,34.7z"/>
	<path class="st4" d="M145.1,34.7c0.3,0,0.7,0,1,0c0.1,0,0.2,0,0.3,0c0.1,0,0.1,0.1,0.1,0.1c0,0.2,0,0.3,0,0.5
		c0,0.1-0.1,0.1-0.1,0.1c-0.1,0-0.2,0-0.3,0c-0.1,0-0.3,0-0.4,0c-0.1,0-0.1,0.1-0.1,0.1c0,0.1,0,0.2,0,0.3c0,0.6,0,1.2,0,1.8
		c0,0.1,0,0.2,0,0.3c0,0.1-0.1,0.2-0.2,0.2c-0.1,0-0.2,0-0.3,0c-0.5,0-0.5,0-0.5-0.5c0-0.6,0-1.2,0-1.8c0-0.1,0-0.2,0-0.3
		c0-0.1-0.1-0.1-0.1-0.1c-0.2,0-0.3,0-0.5,0c-0.1,0-0.1,0-0.2,0c0,0-0.1-0.1-0.1-0.1c0-0.2,0-0.4,0-0.5c0,0,0-0.1,0.1-0.1
		c0.1,0,0.1,0,0.2,0C144.3,34.7,144.7,34.7,145.1,34.7C145.1,34.7,145.1,34.7,145.1,34.7z"/>
	<path class="st1" d="M23.4,31.7c0,0.1-0.1,0.2-0.2,0.2c0,0-0.1,0-0.1,0c0-0.1-0.1-0.2-0.1-0.3c-0.7-2-1.4-4-2.2-6
		c-0.1-0.4-0.3-0.8-0.5-1.2c0,0,0,0,0,0c0,0,0,0-0.1,0c0,0,0,0,0,0c-0.1,0.6-0.1,1.2-0.2,1.8c-0.1,0.7-0.2,1.4-0.2,2.2
		c-0.1,0-0.2,0-0.3-0.1c0.1-0.5,0.1-1,0.2-1.4c0-0.3,0.1-0.6,0.1-1c0.1-0.7,0.1-1.3,0.2-2c0-0.1,0-0.2,0.1-0.3
		c0.1,0,0.1,0.1,0.2,0.2c0.2,0.1,0.3,0.3,0.4,0.4c0,0.1,0,0.2,0,0.2c0.1,0.1,0.1,0.3,0.2,0.4c0.6,1.7,1.2,3.3,1.8,5
		C22.9,30.5,23.1,31.1,23.4,31.7z"/>
	<path class="st4" d="M117.3,38.2c-0.2,0-0.4,0-0.6,0c-0.1,0-0.1-0.1-0.1-0.1c0-0.1,0-0.2,0-0.3c0-0.1,0-0.2,0.2-0.3
		c0.1,0,0.1-0.1,0.1-0.1c0,0,0-0.1,0-0.1c0-0.5,0-1,0-1.5c0,0,0-0.1,0-0.1c0-0.1,0-0.1-0.1-0.1c-0.1,0-0.2-0.1-0.2-0.2
		c0-0.1,0-0.3,0-0.4c0,0,0.1-0.1,0.1-0.1c0,0,0.1,0,0.1,0c0.3,0,0.7,0,1,0c0,0,0.1,0,0.1,0c0.1,0,0.2,0.1,0.2,0.2c0,0.1,0,0.3,0,0.4
		c0,0.1-0.1,0.2-0.2,0.2c-0.1,0-0.1,0.1-0.1,0.1c0,0,0,0.1,0,0.1c0,0.5,0,1,0,1.5c0,0.1,0,0.2,0.2,0.3c0.1,0,0.1,0.1,0.1,0.2
		c0,0,0,0,0,0c0,0.5,0.1,0.5-0.5,0.5C117.5,38.2,117.4,38.2,117.3,38.2C117.3,38.2,117.3,38.2,117.3,38.2z"/>
	<path class="st4" d="M133.1,38.2c-0.1,0-0.3,0-0.4,0c-0.1,0-0.1,0-0.2,0c-0.1,0-0.2-0.1-0.2-0.2c0-0.1,0-0.2,0-0.3
		c0-0.1,0-0.2,0.2-0.3c0.1,0,0.1-0.1,0.1-0.2c0-0.6,0-1.1,0-1.7c0-0.1-0.1-0.1-0.2-0.2c-0.1,0-0.1-0.1-0.1-0.2c0-0.1,0-0.3,0-0.4
		c0-0.1,0.1-0.2,0.2-0.2c0.4,0,0.8,0,1.1,0c0,0,0,0,0,0c0.1,0,0.1,0.1,0.1,0.1c0,0.1,0,0.3,0,0.4c0,0.1,0,0.2-0.1,0.2
		c-0.1,0-0.1,0.1-0.1,0.2c0,0.6,0,1.1,0,1.7c0,0.1,0,0.2,0.1,0.2c0.1,0,0.1,0.1,0.1,0.2c0,0.1,0,0.3,0,0.4c0,0.1-0.1,0.2-0.2,0.2
		C133.4,38.2,133.3,38.2,133.1,38.2C133.1,38.2,133.1,38.2,133.1,38.2z"/>
	<path class="st4" d="M110.3,36.4c0-0.5,0-0.9,0-1.4c0-0.1,0-0.2,0-0.3c0,0,0.1-0.1,0.1-0.1c0,0,0.1,0,0.1,0c0.1,0,0.2,0,0.3,0
		c0.4,0,0.4,0.1,0.4,0.4c0,0.3,0,0.7,0,1c0,0.2,0,0.5,0,0.7c0,0.2,0,0.4,0,0.6c0,0.1,0,0.1,0.6,0.1c0.1,0,0.2,0,0.3,0
		c0,0,0.1,0,0.1,0c0.1,0,0.1,0.1,0.1,0.1c0,0.2,0,0.3,0,0.5c0,0-0.1,0.1-0.1,0.1c0,0-0.1,0-0.1,0c-0.6,0-1.1,0-1.7,0
		c0,0-0.1,0-0.1,0c0,0-0.1-0.1-0.1-0.1c0-0.1,0-0.2,0-0.3C110.3,37.4,110.3,36.9,110.3,36.4z"/>
	<path class="st2" d="M37.9,21.9c0.1,0,0.2,0,0.2,0c0.3-0.1,0.6,0,0.9,0.2c0.3,0.2,0.4,0.5,0.5,0.8c0,0.2,0,0.4-0.1,0.6
		c-0.2,0.4-0.7,0.7-1.1,0.7c-0.4,0-0.7-0.2-0.9-0.6c-0.2-0.5-0.1-0.9,0.2-1.3c0-0.1,0.1-0.1,0.1-0.1C37.8,22,37.9,22,37.9,21.9z"/>
	<path class="st2" d="M35.8,6.2c0,0,0-0.1-0.1-0.1c-0.1-0.1-0.2-0.2-0.2-0.2c-0.2-0.2-0.3-0.5-0.2-0.8c0-0.5,0.3-0.8,0.8-1
		C36.3,4,36.5,4,36.7,4c0.6,0.2,0.9,0.7,0.8,1.3c-0.1,0.5-0.4,0.8-0.8,0.9c-0.2,0-0.3,0.1-0.5,0c0,0-0.1,0-0.1,0
		C36,6.2,35.9,6.2,35.8,6.2z"/>
	<path class="st2" d="M7.2,18c0,0.1,0,0.1,0,0.2c-0.1,0.4-0.3,0.7-0.7,0.9c-0.2,0.1-0.5,0.1-0.7,0c-0.2-0.1-0.3-0.2-0.4-0.3
		C5.1,18.6,5,18.4,5,18.1c0,0,0-0.1,0-0.1c0-0.3,0.1-0.5,0.3-0.7C5.5,17.1,5.8,17,6.1,17c0.4,0,0.7,0.2,1,0.6c0,0.1,0.1,0.1,0.1,0.2
		c0,0,0.1,0,0.1,0.1C7.2,17.9,7.2,18,7.2,18z"/>
	<path class="st4" d="M68.1,38.2c-0.2,0-0.4,0-0.6,0c-0.1,0-0.1-0.1-0.1-0.1c0-0.1,0-0.3,0-0.4c0-0.1,0-0.2,0.1-0.2
		c0.1,0,0.1-0.1,0.1-0.2c0-0.2,0-0.4,0-0.6c0-0.4,0-0.7,0-1.1c0-0.1,0-0.2-0.1-0.2c-0.1,0-0.1-0.1-0.1-0.1c0-0.2,0-0.3,0-0.5
		c0,0,0.1-0.1,0.1-0.1c0,0,0.1,0,0.1,0c0.3,0,0.7,0,1,0c0,0,0.1,0,0.1,0c0.1,0,0.1,0.1,0.1,0.1c0,0.1,0,0.3,0,0.4
		c0,0.1-0.1,0.2-0.2,0.2c-0.1,0-0.1,0.1-0.1,0.1c0,0.1,0,0.2,0,0.3c0,0.5,0,1,0,1.5c0,0.1,0,0.1,0.1,0.2c0.1,0,0.2,0.1,0.2,0.2
		c0,0.1,0,0.3,0,0.4c0,0.1-0.1,0.1-0.1,0.1C68.5,38.2,68.3,38.2,68.1,38.2z"/>
	<path class="st4" d="M142.7,36.4c0,0.3,0,0.5,0,0.8c0,0.1,0,0.2,0.2,0.3c0,0,0.1,0.1,0.1,0.1c0,0.2,0,0.3,0,0.5
		c0,0.1-0.1,0.1-0.1,0.1c0,0-0.1,0-0.1,0c-0.4,0-0.7,0-1.1,0c0,0-0.1,0-0.1,0c0,0-0.1,0-0.1-0.1c0-0.2,0-0.4,0-0.5
		c0,0,0-0.1,0.1-0.1c0.1,0,0.2-0.1,0.2-0.2c0-0.5,0-1.1,0-1.6c0-0.1,0-0.2-0.2-0.2c-0.1,0-0.1-0.1-0.1-0.1c0-0.2,0-0.3,0-0.5
		c0-0.1,0.1-0.1,0.1-0.1c0,0,0.1,0,0.1,0c0.3,0,0.6,0,1,0c0,0,0.1,0,0.1,0c0,0,0.1,0.1,0.1,0.1c0,0.1,0,0.3,0,0.4
		c0,0.1,0,0.2-0.2,0.2c-0.1,0-0.1,0.1-0.1,0.2c0,0.2,0,0.4,0,0.6C142.7,36.3,142.7,36.4,142.7,36.4
		C142.7,36.4,142.7,36.4,142.7,36.4z"/>
	<path class="st4" d="M138.7,36.4c0-0.5,0-0.9,0-1.4c0-0.1,0-0.2,0-0.2c0,0,0-0.1,0.1-0.1c0,0,0.1,0,0.1,0c0.1,0,0.1,0,0.2,0
		c0.6,0,0.6,0,0.6,0.6c0,0.6,0,1.2,0,1.8c0,0.1,0,0.2,0,0.3c0,0,0,0.1,0.1,0.1c0.2,0,0.4,0,0.6,0c0.1,0,0.3,0,0.4,0
		c0,0,0.1,0.1,0.1,0.1c0,0.2,0,0.4,0,0.5c0,0-0.1,0.1-0.1,0.1c0,0-0.1,0-0.1,0c-0.6,0-1.1,0-1.7,0c0,0-0.1,0-0.1,0
		c0,0-0.1,0-0.1-0.1c0-0.1,0-0.2,0-0.2C138.7,37.4,138.7,36.9,138.7,36.4z"/>
	<path class="st5" d="M19.5,28.3c0.1,0.1,0.2,0.1,0.3,0.1c0.1,0.1,0.2,0.1,0.2,0.2c0.5,0.5,0.3,1.3-0.4,1.6c-0.1,0-0.2,0-0.2,0
		c-0.1,0-0.3,0-0.4,0c-0.1-0.1-0.2-0.1-0.3-0.1c0-0.1-0.1-0.2-0.2-0.3c-0.3-0.4-0.2-1,0.2-1.3c0.1-0.1,0.3-0.2,0.5-0.2
		C19.4,28.4,19.4,28.4,19.5,28.3z"/>
	<path class="st2" d="M14.8,11.5c0.1-0.1,0.2-0.2,0.2-0.3c0.2-0.2,0.4-0.3,0.7-0.3c0.1,0,0.2,0,0.3,0c0.1,0.1,0.1,0.1,0.2,0.2
		c0.2,0.2,0.4,0.4,0.4,0.7c0,0.1,0,0.1,0.1,0.2c-0.1,0.1-0.1,0.2-0.1,0.3c-0.1,0.1-0.1,0.2-0.2,0.3c0,0.1-0.1,0.1-0.1,0.2
		c-0.1,0-0.2,0.1-0.2,0.1c-0.1,0-0.2,0-0.3,0c-0.2,0-0.5-0.1-0.7-0.2c-0.1-0.1-0.2-0.2-0.3-0.4c-0.1-0.1-0.1-0.3-0.1-0.4
		C14.8,11.7,14.8,11.6,14.8,11.5z"/>
	<path class="st1" d="M12.5,26.1C12.5,26.1,12.5,26.1,12.5,26.1c-0.1-0.1-0.2-0.2-0.1-0.3c1.3-0.5,2.6-1,3.8-1.5
		c1.1-0.4,2.2-0.9,3.3-1.3c0.1,0.1,0.2,0.1,0.2,0.2c-0.9,0.4-1.8,0.7-2.7,1.1C15.5,24.9,14,25.5,12.5,26.1z"/>
	<path class="st1" d="M36.5,28c-0.1,0.1-0.2,0.1-0.3,0.1c0-0.1-0.1-0.3-0.1-0.4c-0.4-1.7-0.8-3.4-1.2-5c0-0.1,0-0.1-0.1-0.1
		c0.1-0.1,0.1-0.2,0.2-0.3c0,0,0.1,0,0.1-0.1c0.1,0.2,0.1,0.4,0.2,0.6c0.4,1.6,0.8,3.2,1.2,4.9C36.4,27.7,36.5,27.9,36.5,28z"/>
	<path class="st1" d="M35.8,6.2c0.1,0,0.2,0,0.3,0.1c-0.3,0.9-0.6,1.8-0.9,2.8c-0.3,0.8-0.5,1.6-0.8,2.4c-0.1-0.1-0.2-0.2-0.2-0.3
		c0.4-1,0.7-2,1.1-3.1c0.2-0.6,0.4-1.2,0.6-1.7C35.8,6.2,35.8,6.2,35.8,6.2z"/>
	<path class="st1" d="M12.6,19.9c0.1,0,0.2,0,0.3,0.1c0,0.1,0,0.1,0,0.2c-0.3,1-0.7,2-1,3c-0.2,0.6-0.4,1.3-0.6,1.9
		c-0.1,0-0.2,0-0.3-0.1c0.6-1.6,1.1-3.3,1.7-4.9C12.5,19.9,12.6,19.9,12.6,19.9z"/>
	<path class="st1" d="M26.4,31.5c-0.1,0-0.2,0-0.2-0.2c0-0.1,0-0.1,0.1-0.2c0.6-1.5,1.1-3,1.7-4.5c0.1,0,0.2,0,0.3,0
		c-0.1,0.2-0.1,0.4-0.2,0.6c-0.5,1.3-1,2.6-1.5,3.9C26.5,31.3,26.5,31.4,26.4,31.5z"/>
	<path class="st1" d="M35.4,28.5C35.4,28.5,35.4,28.5,35.4,28.5c-0.1,0.1-0.2,0.2-0.2,0.2c-1.2-0.9-2.5-1.9-3.7-2.9
		c-0.1-0.1-0.1-0.1-0.2-0.2c0.1,0,0.2-0.1,0.3-0.1c0,0,0,0,0.1,0c1.1,0.9,2.3,1.8,3.4,2.6C35.2,28.3,35.3,28.4,35.4,28.5z"/>
	<path class="st1" d="M40.4,15.9c0,0.1,0,0.2-0.1,0.3c-0.4-0.1-0.8-0.2-1.2-0.3c-1-0.3-1.9-0.5-2.9-0.8c0,0-0.1,0-0.1,0
		c-0.1-0.1-0.1-0.2,0-0.3c1.3,0.4,2.7,0.7,4,1.1C40.2,15.8,40.3,15.8,40.4,15.9z"/>
	<path class="st1" d="M14.8,11.5c0,0.1,0,0.2,0,0.3c-0.1,0-0.2,0-0.3,0c-1.2-0.3-2.4-0.5-3.6-0.8c-0.2-0.1-0.5-0.1-0.7-0.2
		c0-0.1,0-0.2,0.1-0.3c0.4,0.1,0.7,0.1,1.1,0.2c1,0.2,2,0.4,3.1,0.7C14.6,11.4,14.7,11.5,14.8,11.5z"/>
	<path class="st1" d="M9.6,11.6c0.1-0.1,0.1-0.1,0.2-0.2c0.1,0.1,0.2,0.2,0.2,0.3c0.7,1.1,1.4,2.2,2.1,3.3c0,0.1-0.1,0.2-0.2,0.2
		c-0.7-1.1-1.4-2.3-2.1-3.4C9.7,11.8,9.7,11.7,9.6,11.6z"/>
	<path class="st1" d="M18.8,30.2c0.1,0,0.2,0.1,0.3,0.1c-0.1,0.1-0.1,0.2-0.2,0.2c-0.7,1-1.4,1.9-2.2,2.8c-0.1,0.1-0.1,0.2-0.2,0.2
		c-0.1-0.1-0.2-0.1-0.2-0.2C17.1,32.3,17.9,31.3,18.8,30.2C18.7,30.2,18.8,30.2,18.8,30.2z"/>
	<path class="st1" d="M7.2,18c0-0.1,0-0.2,0-0.3c0.3-0.1,0.6-0.1,0.9-0.2c0.7-0.1,1.3-0.2,2-0.3c0.2,0,0.4-0.1,0.6-0.1
		c0.1,0.1,0.1,0.2,0.1,0.3c-0.5,0.1-1,0.2-1.5,0.2c-0.6,0.1-1.2,0.2-1.8,0.3C7.4,18.1,7.3,18.1,7.2,18z"/>
	<path class="st1" d="M29.4,5.3c0.1-0.1,0.2-0.1,0.3-0.1c0.2,0.5,0.4,1,0.6,1.6c0.3,0.6,0.5,1.3,0.8,1.9c0,0.1,0,0.1,0.1,0.2
		c-0.1,0-0.2,0-0.2,0c-0.1,0-0.1-0.1-0.2-0.1c0-0.1,0-0.2-0.1-0.2c-0.2-0.4-0.3-0.9-0.5-1.3C29.9,6.5,29.7,5.9,29.4,5.3z"/>
	<path class="st1" d="M16.2,11.1C16.1,11,16,11,16,10.9c0-0.1,0-0.1,0.1-0.2c0.4-1.1,0.8-2.1,1.2-3.2c0-0.1,0-0.1,0.1-0.2
		c0.1,0,0.2,0.1,0.3,0.1c-0.3,0.8-0.6,1.5-0.8,2.3C16.5,10.2,16.4,10.7,16.2,11.1z"/>
	<path class="st1" d="M27.4,4.9c0.1,0,0.1,0,0.2,0c0,0,0.1,0.1,0.1,0.1c-0.1,0.1-0.1,0.2-0.2,0.4c-0.5,0.7-0.9,1.5-1.4,2.2
		c-0.1,0.1-0.1,0.2-0.2,0.3C25.7,8,25.5,8,25.4,7.9c0,0,0.1-0.1,0.1-0.1C26.1,6.8,26.7,5.8,27.4,4.9z"/>
	<path class="st1" d="M37.9,21.9c0,0.1-0.1,0.1-0.2,0.2c0,0-0.1,0-0.1-0.1c-0.1-0.1-0.1-0.2-0.2-0.3c-0.4-0.7-0.8-1.4-1.2-2
		c0-0.1-0.1-0.2-0.2-0.2c0-0.2,0-0.3,0.1-0.4c0,0,0.1,0.1,0.1,0.1C36.8,20.1,37.4,21,37.9,21.9z"/>
	<path class="st1" d="M20.1,7.7c0.1-0.1,0.2-0.1,0.3-0.1c0.3,0.8,0.5,1.5,0.8,2.3c0,0.1-0.1,0.2-0.2,0.2C20.6,9.3,20.4,8.5,20.1,7.7
		z"/>
	<path class="st1" d="M15.6,18.7c0.6,0.5,1.2,1.1,1.8,1.6c0.3,0.3,0.7,0.6,1,0.9c0.2,0.2,0.2,0.4,0.4,0.7c0,0-0.1,0-0.1,0
		c-0.1,0-0.1-0.1-0.2-0.2c-1-0.9-1.9-1.7-2.9-2.6c-0.1-0.1-0.1-0.1-0.2-0.2C15.4,18.8,15.5,18.7,15.6,18.7z"/>
	<path class="st1" d="M16.4,12.7c0,0.1,0.1,0.2,0.1,0.3c0.3,0.9,0.7,1.8,1,2.7c0.1,0.2,0.1,0.3,0.2,0.5c0,0.1,0,0.2,0,0.2
		c0,0.2,0,0.3-0.1,0.5c-0.1-0.1-0.1-0.2-0.2-0.3c-0.3-0.8-0.6-1.6-0.9-2.4c-0.2-0.5-0.3-0.9-0.5-1.4C16.2,12.7,16.2,12.7,16.4,12.7z
		"/>
	<path class="st1" d="M18.8,12.7c-0.7-0.1-1.4-0.3-2-0.4c-0.1,0-0.1,0-0.1-0.1c0-0.1,0-0.2,0.1-0.3c0.6,0.1,1.2,0.3,1.8,0.4
		c0.1,0,0.2,0.1,0.3,0.1C18.9,12.5,18.9,12.6,18.8,12.7z"/>
	<path class="st5" d="M27.1,12.5c-0.2,0-0.3-0.1-0.3-0.3c0-0.2,0.2-0.4,0.4-0.3c0.2,0,0.3,0.2,0.3,0.4
		C27.5,12.4,27.3,12.5,27.1,12.5z"/>
</g>
</svg>
